%TF.GenerationSoftware,Novarm,DipTrace,3.2.0.1*%
%TF.CreationDate,2018-02-07T16:10:34+00:00*%
%FSLAX35Y35*%
%MOMM*%
%TF.FileFunction,Soldermask,Bot*%
%TF.Part,Single*%
%ADD19C,1.8*%
%ADD23C,1.7*%
%ADD29C,1.724*%
%ADD33C,1.9304*%
%ADD38C,1.1*%
%ADD43R,1.7X1.7*%
%ADD51C,1.724*%
%ADD55O,1.9X2.6*%
%ADD57R,1.9X2.6*%
%ADD59R,1.8X1.8*%
G75*
G01*
%LPD*%
D19*
X4556000Y5127500D3*
D59*
Y5635500D3*
D57*
X7159500Y6969000D3*
D55*
X6905500D3*
X6651500D3*
D38*
X7159500Y7223000D3*
X6905500D3*
X6651500D3*
D57*
X6397500Y6969000D3*
D55*
X6143500D3*
X5889500D3*
D38*
X6397500Y7223000D3*
X6143500D3*
X5889500D3*
D57*
X4619500Y6969000D3*
D55*
X4365500D3*
D38*
X4619500Y7223000D3*
X4365500D3*
D57*
X5127500Y6143500D3*
D55*
X5381500D3*
D38*
X5127500Y5889500D3*
X5381500D3*
D57*
X4937000Y2206500D3*
D55*
X5191000D3*
X5445000D3*
D38*
X4937000Y1952500D3*
X5191000D3*
X5445000D3*
D57*
X4111500Y6969000D3*
D55*
X3857500D3*
D38*
X4111500Y7223000D3*
X3857500D3*
D29*
X1571500Y6461000D3*
D51*
Y5445000D3*
D33*
X3540000Y6080000D3*
Y5826000D3*
Y5572000D3*
Y5318000D3*
Y5064000D3*
Y4810000D3*
Y4556000D3*
Y4302000D3*
Y4048000D3*
Y3794000D3*
Y3540000D3*
X2016000Y2778000D3*
Y3032000D3*
X3540000Y2778000D3*
Y2524000D3*
Y2270000D3*
Y2016000D3*
X2016000D3*
Y2270000D3*
Y2524000D3*
X3540000Y3286000D3*
Y3032000D3*
X2016000Y3286000D3*
Y3540000D3*
Y3794000D3*
Y4048000D3*
Y4302000D3*
Y4556000D3*
Y4810000D3*
Y5064000D3*
Y5318000D3*
Y5572000D3*
Y5826000D3*
Y6080000D3*
D23*
X5889500Y3730500D3*
X6143500D3*
X6397500D3*
X6651500D3*
X6905500D3*
X7159500D3*
X7413500D3*
X7667500D3*
X5889500Y5000500D3*
D43*
X6143500D3*
D23*
X6397500D3*
X6651500D3*
X6905500D3*
X7159500D3*
X7413500D3*
D43*
X7667500D3*
M02*
