%TF.GenerationSoftware,Novarm,DipTrace,3.2.0.1*%
%TF.CreationDate,2018-02-07T16:10:31+00:00*%
%FSLAX35Y35*%
%MOMM*%
%TF.FileFunction,Copper,L2,Bot*%
%TF.Part,Single*%
%TA.AperFunction,Conductor*%
%ADD14C,0.33*%
%ADD15C,0.5*%
%TA.AperFunction,CopperBalancing*%
%ADD16C,0.635*%
%TA.AperFunction,ComponentPad*%
%ADD17C,1.6*%
%ADD21R,1.6X1.6*%
%ADD22R,1.7X2.4*%
%ADD25C,1.5*%
%ADD26O,1.7X2.4*%
%ADD27C,1.524*%
%ADD31C,1.524*%
%ADD33C,1.9304*%
%ADD37R,1.5X1.5*%
%TA.AperFunction,CopperBalancing*%
%ADD65C,0.33*%
G75*
G01*
%LPD*%
X1571500Y5445000D2*
D14*
X1444500Y5318000D1*
Y1635000D1*
X1889000Y1190500D1*
X7667500D1*
X8112000Y1635000D1*
Y5254500D1*
X7985000Y5381500D1*
X7540500D1*
X7413500Y5254500D1*
Y5000500D1*
X1571500Y5445000D2*
Y5635500D1*
X1762000Y5826000D1*
X2016000D1*
X3540000Y4556000D2*
X5064000D1*
X5889500Y3730500D1*
X1571500Y6461000D2*
X2968500D1*
X3222500Y6207000D1*
Y4683000D1*
X3349500Y4556000D1*
X3540000D1*
Y3540000D2*
X4746500D1*
X5381500Y2905000D1*
X6842000D1*
X7667500Y3730500D1*
X2016000Y4048000D2*
X1762000Y3794000D1*
Y1952500D1*
X2079500Y1635000D1*
X4048000D1*
X4619500Y2206500D1*
X4937000D1*
X5127500Y6143500D2*
D15*
X4829500D1*
X4619500Y6353500D1*
Y6969000D1*
X5889500Y5000500D2*
Y5635500D1*
Y6204500D1*
X5828500Y6143500D1*
X5381500D1*
X5889500Y6204500D2*
Y6969000D1*
X4556000Y5635500D2*
X5889500D1*
X3540000Y4810000D2*
D14*
X5064000D1*
X6143500Y3730500D1*
X3540000Y3794000D2*
X4845000D1*
X5526990Y3112010D1*
X6795010D1*
X7413500Y3730500D1*
X6651500D2*
X6207000Y3286000D1*
X5699000D1*
X4937000Y4048000D1*
X3540000D1*
Y4302000D2*
X5000500D1*
X5826000Y3476500D1*
X6143500D1*
X6397500Y3730500D1*
Y5000500D2*
D15*
Y6969000D1*
X6651500Y5000500D2*
Y6969000D1*
X6905500Y5000500D2*
Y6969000D1*
X7159500Y5000500D2*
Y6969000D1*
X2016000Y4302000D2*
D14*
X1571500Y3857500D1*
Y1889000D1*
X2016000Y1444500D1*
X5445000D1*
X5762500Y1762000D1*
Y2079500D1*
X5635500Y2206500D1*
X5445000D1*
X3540000Y5318000D2*
X4111500Y5889500D1*
Y6969000D1*
X1088146Y7212083D2*
D16*
X3712295D1*
X4764695D2*
X5744300D1*
X7304747D2*
X8411774D1*
X1088146Y7148917D2*
X3733167D1*
X4795138D2*
X5765172D1*
X7335099D2*
X8411683D1*
X1088146Y7085750D2*
X3702907D1*
X4795138D2*
X5734912D1*
X7335099D2*
X8411591D1*
X1088146Y7022583D2*
X3682854D1*
X4795138D2*
X5714860D1*
X7335099D2*
X8411500D1*
X1088146Y6959417D2*
X3681852D1*
X4795138D2*
X5713857D1*
X7335099D2*
X8411500D1*
X1088146Y6896250D2*
X3686136D1*
X4795138D2*
X5718141D1*
X7335099D2*
X8411409D1*
X1088146Y6833083D2*
X3715211D1*
X4795138D2*
X5747216D1*
X7335099D2*
X8411318D1*
X1088146Y6769917D2*
X3809456D1*
X3905554D2*
X3935875D1*
X4287182D2*
X4317437D1*
X4413510D2*
X4443831D1*
X4795138D2*
X5773831D1*
X6005099D2*
X6095485D1*
X6191492D2*
X6221904D1*
X6767169D2*
X6789790D1*
X7335099D2*
X8411227D1*
X1088146Y6706750D2*
X4004326D1*
X4218640D2*
X4503896D1*
X4735164D2*
X5773831D1*
X6005099D2*
X6281878D1*
X6513146D2*
X6535901D1*
X6767169D2*
X6789790D1*
X7021101D2*
X7043928D1*
X7275125D2*
X8411227D1*
X1088146Y6643583D2*
X4004326D1*
X4218640D2*
X4503896D1*
X4735164D2*
X5773831D1*
X6005099D2*
X6281878D1*
X6513146D2*
X6535901D1*
X6767169D2*
X6789790D1*
X7021101D2*
X7043928D1*
X7275125D2*
X8411136D1*
X1088146Y6580417D2*
X1457893D1*
X1685060D2*
X4004326D1*
X4218640D2*
X4503896D1*
X4735164D2*
X5773831D1*
X6005099D2*
X6281878D1*
X6513146D2*
X6535901D1*
X6767169D2*
X6789790D1*
X7021101D2*
X7043928D1*
X7275125D2*
X8411045D1*
X1088146Y6517250D2*
X1414873D1*
X3061179D2*
X4004326D1*
X4218640D2*
X4503896D1*
X4735164D2*
X5773831D1*
X6005099D2*
X6281878D1*
X6513146D2*
X6535901D1*
X6767169D2*
X6789790D1*
X7021101D2*
X7043928D1*
X7275125D2*
X8410953D1*
X1088146Y6454083D2*
X1404847D1*
X3124343D2*
X4004326D1*
X4218640D2*
X4503896D1*
X4735164D2*
X5773831D1*
X6005099D2*
X6281878D1*
X6513146D2*
X6535901D1*
X6767169D2*
X6789790D1*
X7021101D2*
X7043928D1*
X7275125D2*
X8410862D1*
X1088146Y6390917D2*
X1420797D1*
X3187508D2*
X4004326D1*
X4218640D2*
X4503896D1*
X4743002D2*
X5773831D1*
X6005099D2*
X6281878D1*
X6513146D2*
X6535901D1*
X6767169D2*
X6789790D1*
X7021101D2*
X7043928D1*
X7275125D2*
X8410862D1*
X1088146Y6327750D2*
X1475667D1*
X1667286D2*
X2952867D1*
X3250672D2*
X4004326D1*
X4218640D2*
X4506904D1*
X4806166D2*
X4951878D1*
X5467703D2*
X5773831D1*
X6005099D2*
X6281878D1*
X6513146D2*
X6535901D1*
X6767169D2*
X6789790D1*
X7021101D2*
X7043928D1*
X7275125D2*
X8410771D1*
X1088146Y6264583D2*
X3016032D1*
X3311557D2*
X4004326D1*
X4218640D2*
X4547464D1*
X4869330D2*
X4951878D1*
X5533601D2*
X5773831D1*
X6005099D2*
X6281878D1*
X6513146D2*
X6535901D1*
X6767169D2*
X6789790D1*
X7021101D2*
X7043928D1*
X7275125D2*
X8410680D1*
X1088146Y6201417D2*
X1875706D1*
X2156284D2*
X3079196D1*
X3329604D2*
X3399664D1*
X3680333D2*
X4004326D1*
X4218640D2*
X4610719D1*
X6005099D2*
X6281878D1*
X6513146D2*
X6535901D1*
X6767169D2*
X6789790D1*
X7021101D2*
X7043928D1*
X7275125D2*
X8410589D1*
X1088146Y6138250D2*
X1838518D1*
X2193562D2*
X3115380D1*
X3329604D2*
X3362477D1*
X3717521D2*
X4004326D1*
X4218640D2*
X4673883D1*
X6005099D2*
X6281878D1*
X6513146D2*
X6535901D1*
X6767169D2*
X6789790D1*
X7021101D2*
X7043928D1*
X7275125D2*
X8410589D1*
X1088146Y6075083D2*
X1828948D1*
X2203133D2*
X3115380D1*
X3329604D2*
X3352981D1*
X3727091D2*
X4004326D1*
X4218640D2*
X4737047D1*
X6005099D2*
X6281878D1*
X6513146D2*
X6535901D1*
X6767169D2*
X6789790D1*
X7021101D2*
X7043928D1*
X7275125D2*
X8410498D1*
X1088146Y6011917D2*
X1842164D1*
X2189825D2*
X3115380D1*
X3329604D2*
X3366123D1*
X3713875D2*
X4004326D1*
X4218640D2*
X4951878D1*
X5526857D2*
X5773831D1*
X6005099D2*
X6281878D1*
X6513146D2*
X6535901D1*
X6767169D2*
X6789790D1*
X7021101D2*
X7043928D1*
X7275125D2*
X8410407D1*
X1088146Y5948750D2*
X1876891D1*
X2155099D2*
X3115380D1*
X3329604D2*
X3400849D1*
X3679148D2*
X4004326D1*
X4218640D2*
X4951878D1*
X5513914D2*
X5773831D1*
X6005099D2*
X6281878D1*
X6513146D2*
X6535901D1*
X6767169D2*
X6789790D1*
X7021101D2*
X7043928D1*
X7275125D2*
X8410315D1*
X1088146Y5885583D2*
X1672724D1*
X2193015D2*
X3115380D1*
X3329604D2*
X3362933D1*
X3717065D2*
X3958662D1*
X4218549D2*
X4981956D1*
X5527130D2*
X5773831D1*
X6005099D2*
X6281878D1*
X6513146D2*
X6535901D1*
X6767169D2*
X6789790D1*
X7021101D2*
X7043928D1*
X7275125D2*
X8410315D1*
X1088146Y5822417D2*
X1609560D1*
X2203133D2*
X3115380D1*
X3329604D2*
X3352805D1*
X3727091D2*
X3895498D1*
X4193028D2*
X4999091D1*
X5509903D2*
X5773831D1*
X6005099D2*
X6281878D1*
X6513146D2*
X6535901D1*
X6767169D2*
X6789790D1*
X7021101D2*
X7043928D1*
X7275125D2*
X8410224D1*
X1088146Y5759250D2*
X1546396D1*
X2190372D2*
X3115380D1*
X3329604D2*
X3365576D1*
X3714422D2*
X3832334D1*
X4130138D2*
X4385315D1*
X4726596D2*
X5071826D1*
X5183237D2*
X5325758D1*
X5437169D2*
X5773831D1*
X6005099D2*
X6281878D1*
X6513146D2*
X6535901D1*
X6767169D2*
X6789790D1*
X7021101D2*
X7043928D1*
X7275125D2*
X8410133D1*
X1088146Y5696083D2*
X1484599D1*
X1780945D2*
X1878167D1*
X2153823D2*
X3115380D1*
X3329604D2*
X3402125D1*
X3677872D2*
X3769170D1*
X4066974D2*
X4385315D1*
X6005099D2*
X6281878D1*
X6513146D2*
X6535901D1*
X6767169D2*
X6789790D1*
X7021101D2*
X7043928D1*
X7275125D2*
X8410042D1*
X1088146Y5632917D2*
X1464365D1*
X1717781D2*
X1839430D1*
X2192560D2*
X3115380D1*
X3329604D2*
X3363388D1*
X4003810D2*
X4385315D1*
X6005099D2*
X6281878D1*
X6513146D2*
X6535901D1*
X6767169D2*
X6789790D1*
X7021101D2*
X7043928D1*
X7275125D2*
X8410042D1*
X1088146Y5569750D2*
X1464183D1*
X1678862D2*
X1828857D1*
X2203133D2*
X3115380D1*
X3329604D2*
X3352805D1*
X3940646D2*
X4385315D1*
X6005099D2*
X6281878D1*
X6513146D2*
X6535901D1*
X6767169D2*
X6789790D1*
X7021101D2*
X7043928D1*
X7275125D2*
X8409951D1*
X1088146Y5506583D2*
X1416969D1*
X1726075D2*
X1841071D1*
X2190919D2*
X3115380D1*
X3329604D2*
X3365120D1*
X3877482D2*
X4385315D1*
X4726596D2*
X5773831D1*
X6005099D2*
X6281878D1*
X6513146D2*
X6535901D1*
X6767169D2*
X6789790D1*
X7021101D2*
X7043928D1*
X7275125D2*
X8409860D1*
X1088146Y5443417D2*
X1404664D1*
X1738289D2*
X1879443D1*
X2152547D2*
X3115380D1*
X3329604D2*
X3403401D1*
X3814317D2*
X5773831D1*
X6005099D2*
X6281878D1*
X6513146D2*
X6535901D1*
X6767169D2*
X6789790D1*
X7021101D2*
X7043928D1*
X7275125D2*
X7453558D1*
X8072013D2*
X8409768D1*
X1088146Y5380250D2*
X1358909D1*
X1724708D2*
X1839886D1*
X2192104D2*
X3115380D1*
X3329604D2*
X3363935D1*
X3751153D2*
X5773831D1*
X6005099D2*
X6281878D1*
X6513146D2*
X6535901D1*
X6767169D2*
X6789790D1*
X7021101D2*
X7043928D1*
X7275125D2*
X7390393D1*
X8135177D2*
X8409677D1*
X1088146Y5317083D2*
X1337399D1*
X1674760D2*
X1828857D1*
X2203133D2*
X3115380D1*
X3329604D2*
X3352805D1*
X3727182D2*
X5773831D1*
X6005099D2*
X6281878D1*
X6513146D2*
X6535901D1*
X6767169D2*
X6789790D1*
X7021101D2*
X7043928D1*
X7275125D2*
X7328141D1*
X8197338D2*
X8409677D1*
X1088146Y5253917D2*
X1337399D1*
X1551622D2*
X1840615D1*
X2191466D2*
X3115380D1*
X3329604D2*
X3364573D1*
X3715424D2*
X4444742D1*
X4667260D2*
X5773831D1*
X6005099D2*
X6281878D1*
X6513146D2*
X6535901D1*
X6767169D2*
X6789790D1*
X7021101D2*
X7043928D1*
X7275125D2*
X7306357D1*
X7561778D2*
X7963701D1*
X8219122D2*
X8409586D1*
X1088146Y5190750D2*
X1337399D1*
X1551622D2*
X1880719D1*
X2151271D2*
X3115380D1*
X3329604D2*
X3404677D1*
X3675320D2*
X4397985D1*
X4714018D2*
X5773831D1*
X6005099D2*
X6281878D1*
X6513146D2*
X6535901D1*
X6767169D2*
X6789790D1*
X7021101D2*
X7043928D1*
X7275125D2*
X7306357D1*
X7520672D2*
X8004899D1*
X8219122D2*
X8409495D1*
X1088146Y5127583D2*
X1337399D1*
X1551622D2*
X1840433D1*
X2191648D2*
X3115380D1*
X3329604D2*
X3364391D1*
X3715607D2*
X4385315D1*
X4726596D2*
X5773831D1*
X6513146D2*
X6535901D1*
X6767169D2*
X6789790D1*
X7021101D2*
X7043928D1*
X7275125D2*
X7306357D1*
X7833120D2*
X8004899D1*
X8219122D2*
X8409404D1*
X1088146Y5064417D2*
X1337399D1*
X1551622D2*
X1828857D1*
X2203133D2*
X3115380D1*
X3329604D2*
X3352805D1*
X3727182D2*
X4397985D1*
X4714018D2*
X5737282D1*
X7833120D2*
X8004899D1*
X8219122D2*
X8409404D1*
X1088146Y5001250D2*
X1337399D1*
X1551622D2*
X1840068D1*
X2191922D2*
X3115380D1*
X3329604D2*
X3364117D1*
X3715880D2*
X4444560D1*
X4667442D2*
X5723883D1*
X7833120D2*
X8004899D1*
X8219122D2*
X8409313D1*
X1088146Y4938083D2*
X1337399D1*
X1551622D2*
X1879899D1*
X2152091D2*
X3115380D1*
X3329604D2*
X3403857D1*
X3676140D2*
X5736643D1*
X7833120D2*
X8004899D1*
X8219122D2*
X8409222D1*
X1088146Y4874917D2*
X1337399D1*
X1551622D2*
X1840888D1*
X2191101D2*
X3115380D1*
X3329604D2*
X3364938D1*
X5147963D2*
X5785133D1*
X6501843D2*
X6547203D1*
X6755867D2*
X6801136D1*
X7009799D2*
X7055159D1*
X7263823D2*
X7309183D1*
X7833120D2*
X8004899D1*
X8219122D2*
X8409130D1*
X1088146Y4811750D2*
X1337399D1*
X1551622D2*
X1828857D1*
X2203133D2*
X3115380D1*
X3329604D2*
X3352805D1*
X5211127D2*
X8004899D1*
X8219122D2*
X8409130D1*
X1088146Y4748583D2*
X1337399D1*
X1551622D2*
X1839612D1*
X2192377D2*
X3115380D1*
X3329604D2*
X3363571D1*
X5274291D2*
X8004899D1*
X8219122D2*
X8409039D1*
X1088146Y4685417D2*
X1337399D1*
X1551622D2*
X1878623D1*
X2153367D2*
X3115380D1*
X3368979D2*
X3402581D1*
X3677416D2*
X5039651D1*
X5337455D2*
X8004899D1*
X8219122D2*
X8408948D1*
X1088146Y4622250D2*
X1337399D1*
X1551622D2*
X1841435D1*
X2190554D2*
X3135706D1*
X5400620D2*
X8004899D1*
X8219122D2*
X8408857D1*
X1088146Y4559083D2*
X1337399D1*
X1551622D2*
X1828857D1*
X2203133D2*
X3197503D1*
X5463784D2*
X8004899D1*
X8219122D2*
X8408857D1*
X1088146Y4495917D2*
X1337399D1*
X1551622D2*
X1839157D1*
X2192924D2*
X3260667D1*
X5526948D2*
X8004899D1*
X8219122D2*
X8408766D1*
X1088146Y4432750D2*
X1337399D1*
X1551622D2*
X1877347D1*
X2154643D2*
X3401396D1*
X3678601D2*
X5038375D1*
X5590112D2*
X8004899D1*
X8219122D2*
X8408675D1*
X1088146Y4369583D2*
X1337399D1*
X1551622D2*
X1841982D1*
X2190099D2*
X3365940D1*
X5081791D2*
X5101575D1*
X5653276D2*
X8004899D1*
X8219122D2*
X8408584D1*
X1088146Y4306417D2*
X1337399D1*
X1551622D2*
X1828857D1*
X2203133D2*
X3352907D1*
X5144955D2*
X5164703D1*
X5716440D2*
X8004899D1*
X8219122D2*
X8408584D1*
X1088146Y4243250D2*
X1337399D1*
X1551622D2*
X1808349D1*
X2193380D2*
X3362659D1*
X5208120D2*
X5227887D1*
X5779604D2*
X8004899D1*
X8219122D2*
X8408492D1*
X1088146Y4180083D2*
X1337399D1*
X1551622D2*
X1745185D1*
X2155919D2*
X3400120D1*
X3679877D2*
X4973571D1*
X5271284D2*
X5290970D1*
X5842768D2*
X8004899D1*
X8219122D2*
X8408401D1*
X1088146Y4116917D2*
X1337399D1*
X1551622D2*
X1682021D1*
X2189552D2*
X3366487D1*
X5016987D2*
X5036680D1*
X5334448D2*
X5354196D1*
X5905932D2*
X8004899D1*
X8219122D2*
X8408310D1*
X1088146Y4053750D2*
X1337399D1*
X1551622D2*
X1618857D1*
X2203041D2*
X3352907D1*
X5080151D2*
X5099780D1*
X5397612D2*
X5417360D1*
X5969096D2*
X8004899D1*
X8219122D2*
X8408219D1*
X1088146Y3990583D2*
X1337399D1*
X2193836D2*
X3362203D1*
X5143315D2*
X5163063D1*
X5460776D2*
X5480516D1*
X6032260D2*
X8004899D1*
X8219122D2*
X8408219D1*
X1088146Y3927417D2*
X1337399D1*
X2157104D2*
X3398935D1*
X3681062D2*
X4908675D1*
X5206479D2*
X5226207D1*
X5523940D2*
X5543756D1*
X6095515D2*
X8004899D1*
X8219122D2*
X8408128D1*
X1088146Y3864250D2*
X1337399D1*
X2188914D2*
X3367034D1*
X4923653D2*
X4971839D1*
X5269643D2*
X5289347D1*
X5587104D2*
X5606852D1*
X6236336D2*
X6304664D1*
X6490359D2*
X6558597D1*
X6744383D2*
X6812620D1*
X6998406D2*
X7066643D1*
X7252338D2*
X7320667D1*
X7506362D2*
X7574599D1*
X7760385D2*
X8004899D1*
X8219122D2*
X8408037D1*
X1088146Y3801083D2*
X1337399D1*
X2203041D2*
X3352998D1*
X4986817D2*
X5035003D1*
X5332807D2*
X5352555D1*
X5650268D2*
X5669978D1*
X7816622D2*
X8004899D1*
X8219122D2*
X8407946D1*
X1088146Y3737917D2*
X1337399D1*
X2194200D2*
X3361748D1*
X5049982D2*
X5098167D1*
X5395971D2*
X5415719D1*
X7832937D2*
X8004899D1*
X8219122D2*
X8407946D1*
X1088146Y3674750D2*
X1337399D1*
X2158289D2*
X3397750D1*
X3682247D2*
X4815341D1*
X5113146D2*
X5161331D1*
X5459135D2*
X5478931D1*
X7823093D2*
X8004899D1*
X8219122D2*
X8407854D1*
X1088146Y3611583D2*
X1337399D1*
X2188367D2*
X3367581D1*
X4823849D2*
X4878505D1*
X5176310D2*
X5224495D1*
X5522299D2*
X5542071D1*
X6001817D2*
X6031136D1*
X6763797D2*
X6793206D1*
X7017820D2*
X7047115D1*
X7779799D2*
X8004899D1*
X8219122D2*
X8407763D1*
X1088146Y3548417D2*
X1337399D1*
X2202950D2*
X3352998D1*
X4887013D2*
X4941670D1*
X5239474D2*
X5287659D1*
X5585463D2*
X5605211D1*
X6618328D2*
X7082503D1*
X7634330D2*
X8004899D1*
X8219122D2*
X8407672D1*
X1088146Y3485250D2*
X1337399D1*
X2194656D2*
X3361292D1*
X4950177D2*
X5004834D1*
X5302638D2*
X5350823D1*
X5648627D2*
X5668326D1*
X6555164D2*
X7019339D1*
X7571166D2*
X8004899D1*
X8219122D2*
X8407672D1*
X1088146Y3422083D2*
X1337399D1*
X2159383D2*
X3396565D1*
X3683432D2*
X4715537D1*
X5013341D2*
X5067998D1*
X5365802D2*
X5413987D1*
X5711791D2*
X5731575D1*
X6492000D2*
X6956175D1*
X7508002D2*
X8004899D1*
X8219122D2*
X8407581D1*
X1088146Y3358917D2*
X1337399D1*
X2187820D2*
X3368219D1*
X3711778D2*
X4778701D1*
X5076505D2*
X5131162D1*
X5428966D2*
X5477151D1*
X6428836D2*
X6893011D1*
X7444838D2*
X8004899D1*
X8219122D2*
X8407490D1*
X1088146Y3295750D2*
X1337399D1*
X2202859D2*
X3353089D1*
X3726909D2*
X4841865D1*
X5139669D2*
X5194326D1*
X5492130D2*
X5540407D1*
X6365672D2*
X6829847D1*
X7381674D2*
X8004899D1*
X8219122D2*
X8407399D1*
X1088146Y3232583D2*
X1337399D1*
X2195112D2*
X3360927D1*
X3719070D2*
X4905029D1*
X5202833D2*
X5257490D1*
X5555294D2*
X5603571D1*
X6302508D2*
X6766683D1*
X7318510D2*
X8004899D1*
X8219122D2*
X8407399D1*
X1088146Y3169417D2*
X1337399D1*
X2160567D2*
X3395472D1*
X3684526D2*
X4968193D1*
X5265997D2*
X5320654D1*
X7255346D2*
X8004899D1*
X8219122D2*
X8407308D1*
X1088146Y3106250D2*
X1337399D1*
X2187182D2*
X3368766D1*
X3711232D2*
X5031357D1*
X5329161D2*
X5383818D1*
X7192182D2*
X8004899D1*
X8219122D2*
X8407216D1*
X1088146Y3043083D2*
X1337399D1*
X2202859D2*
X3353180D1*
X3726817D2*
X5094521D1*
X5392325D2*
X5446982D1*
X7128927D2*
X8004899D1*
X8219122D2*
X8407125D1*
X1088146Y2979917D2*
X1337399D1*
X2195476D2*
X3360472D1*
X3719526D2*
X5157685D1*
X7065763D2*
X8004899D1*
X8219122D2*
X8407125D1*
X1088146Y2916750D2*
X1337399D1*
X2161661D2*
X3394287D1*
X3685711D2*
X5220849D1*
X7002599D2*
X8004899D1*
X8219122D2*
X8407034D1*
X1088146Y2853583D2*
X1337399D1*
X2186635D2*
X3369404D1*
X3710593D2*
X5284013D1*
X6939435D2*
X8004899D1*
X8219122D2*
X8406943D1*
X1088146Y2790417D2*
X1337399D1*
X2202768D2*
X3353271D1*
X3726726D2*
X8004899D1*
X8219122D2*
X8406852D1*
X1088146Y2727250D2*
X1337399D1*
X2195932D2*
X3360107D1*
X3719890D2*
X8004899D1*
X8219122D2*
X8406761D1*
X1088146Y2664083D2*
X1337399D1*
X2162755D2*
X3393284D1*
X3686804D2*
X8004899D1*
X8219122D2*
X8406761D1*
X1088146Y2600917D2*
X1337399D1*
X2185997D2*
X3370042D1*
X3709955D2*
X8004899D1*
X8219122D2*
X8406670D1*
X1088146Y2537750D2*
X1337399D1*
X2202677D2*
X3353362D1*
X3726635D2*
X8004899D1*
X8219122D2*
X8406578D1*
X1088146Y2474583D2*
X1337399D1*
X2196297D2*
X3359742D1*
X3720255D2*
X8004899D1*
X8219122D2*
X8406487D1*
X1088146Y2411417D2*
X1337399D1*
X2163849D2*
X3392190D1*
X3687807D2*
X8004899D1*
X8219122D2*
X8406487D1*
X1088146Y2348250D2*
X1337399D1*
X2185359D2*
X3370680D1*
X3709317D2*
X4761383D1*
X5582729D2*
X8004899D1*
X8219122D2*
X8406396D1*
X1088146Y2285083D2*
X1337399D1*
X2202495D2*
X3353453D1*
X3726544D2*
X4550016D1*
X5704955D2*
X8004899D1*
X8219122D2*
X8406305D1*
X1088146Y2221917D2*
X1337399D1*
X2196661D2*
X3359378D1*
X3720620D2*
X4486032D1*
X5768940D2*
X8004899D1*
X8219122D2*
X8406214D1*
X1088146Y2158750D2*
X1337399D1*
X2164851D2*
X3391097D1*
X3688901D2*
X4422867D1*
X5832104D2*
X8004899D1*
X8219122D2*
X8406214D1*
X1088146Y2095583D2*
X1337399D1*
X2184721D2*
X3371318D1*
X3708679D2*
X4359703D1*
X4657508D2*
X4761383D1*
X5868380D2*
X8004899D1*
X8219122D2*
X8406123D1*
X1088146Y2032417D2*
X1337399D1*
X2202403D2*
X3353545D1*
X3726453D2*
X4296539D1*
X4594343D2*
X4761383D1*
X5565411D2*
X5655341D1*
X5869656D2*
X8004899D1*
X8219122D2*
X8406032D1*
X1088146Y1969250D2*
X1337399D1*
X2197026D2*
X3359013D1*
X3720984D2*
X4233375D1*
X4531179D2*
X4792373D1*
X5589656D2*
X5655341D1*
X5869656D2*
X8004899D1*
X8219122D2*
X8405940D1*
X1088146Y1906083D2*
X1337399D1*
X2165945D2*
X3390094D1*
X3689903D2*
X4170211D1*
X4468015D2*
X4799300D1*
X5582638D2*
X5655341D1*
X5869656D2*
X8004899D1*
X8219122D2*
X8405940D1*
X1088146Y1842917D2*
X1337399D1*
X2074617D2*
X3481331D1*
X3598666D2*
X4107047D1*
X4404760D2*
X4844690D1*
X5029291D2*
X5098623D1*
X5283315D2*
X5352646D1*
X5537338D2*
X5655341D1*
X5869656D2*
X8004899D1*
X8219122D2*
X8405849D1*
X1088146Y1779750D2*
X1337399D1*
X2083640D2*
X4043883D1*
X4341596D2*
X5631370D1*
X5869656D2*
X8004899D1*
X8219122D2*
X8405758D1*
X1088146Y1716583D2*
X1337399D1*
X1551622D2*
X1595068D1*
X4278432D2*
X5568206D1*
X5858810D2*
X8004899D1*
X8219122D2*
X8405667D1*
X1088146Y1653417D2*
X1337399D1*
X1574955D2*
X1658232D1*
X4215268D2*
X5505042D1*
X5802846D2*
X7981565D1*
X8219122D2*
X8405576D1*
X1088146Y1590250D2*
X1347880D1*
X1638120D2*
X1721396D1*
X4152104D2*
X5441878D1*
X5739682D2*
X7918401D1*
X8208640D2*
X8405576D1*
X1088146Y1527083D2*
X1403571D1*
X1701284D2*
X1784560D1*
X5676427D2*
X7855237D1*
X8152950D2*
X8405485D1*
X1088146Y1463917D2*
X1466735D1*
X1764448D2*
X1847724D1*
X5613263D2*
X7792073D1*
X8089786D2*
X8405393D1*
X1088146Y1400750D2*
X1529899D1*
X1827612D2*
X1910888D1*
X5550099D2*
X7728818D1*
X8026622D2*
X8405302D1*
X1088146Y1337583D2*
X1593063D1*
X1890776D2*
X7665654D1*
X7963458D2*
X8405302D1*
X1088146Y1274417D2*
X1656227D1*
X7900294D2*
X8405211D1*
X1088146Y1211250D2*
X1719391D1*
X7837130D2*
X8405120D1*
X1088146Y1148083D2*
X1782555D1*
X7773966D2*
X8405029D1*
X1088146Y1084917D2*
X8405029D1*
X4720224Y5122834D2*
X4718636Y5104245D1*
X4714951Y5085956D1*
X4709216Y5068203D1*
X4701505Y5051214D1*
X4691918Y5035209D1*
X4680578Y5020394D1*
X4667631Y5006961D1*
X4653245Y4995082D1*
X4637605Y4984910D1*
X4620913Y4976578D1*
X4603383Y4970191D1*
X4585243Y4965833D1*
X4566725Y4963560D1*
X4548069Y4963402D1*
X4529516Y4965359D1*
X4511303Y4969407D1*
X4493668Y4975494D1*
X4476836Y4983541D1*
X4461025Y4993444D1*
X4446438Y5005077D1*
X4433265Y5018288D1*
X4421674Y5032907D1*
X4411816Y5048746D1*
X4403817Y5065601D1*
X4397780Y5083254D1*
X4393784Y5101478D1*
X4391880Y5120037D1*
X4392092Y5138692D1*
X4394417Y5157203D1*
X4398827Y5175332D1*
X4405263Y5192843D1*
X4413644Y5209511D1*
X4423860Y5225122D1*
X4435780Y5239474D1*
X4449250Y5252383D1*
X4464097Y5263680D1*
X4480129Y5273222D1*
X4497140Y5280884D1*
X4514909Y5286568D1*
X4533209Y5290201D1*
X4551802Y5291736D1*
X4570450Y5291153D1*
X4588911Y5288460D1*
X4606948Y5283691D1*
X4624327Y5276907D1*
X4640826Y5268197D1*
X4656231Y5257673D1*
X4670343Y5245470D1*
X4682981Y5231746D1*
X4693981Y5216677D1*
X4703202Y5200458D1*
X4710524Y5183299D1*
X4715854Y5165420D1*
X4719122Y5147051D1*
X4720290Y5127500D1*
X4720224Y5122834D1*
X4415043Y5799790D2*
X4720290D1*
Y5744829D1*
X5780180Y5744790D1*
X5780210Y6034263D1*
X5533643Y6034210D1*
X5525843Y6020046D1*
X5510229Y5998555D1*
X5491445Y5979771D1*
X5489121Y5977939D1*
X5500264Y5962279D1*
X5510187Y5942804D1*
X5516941Y5922017D1*
X5520361Y5900429D1*
Y5878571D1*
X5516941Y5856983D1*
X5510187Y5836196D1*
X5500264Y5816721D1*
X5487417Y5799038D1*
X5471962Y5783583D1*
X5454279Y5770736D1*
X5434804Y5760813D1*
X5414017Y5754059D1*
X5392429Y5750639D1*
X5370571D1*
X5348983Y5754059D1*
X5328196Y5760813D1*
X5308721Y5770736D1*
X5291038Y5783583D1*
X5275583Y5799038D1*
X5262736Y5816721D1*
X5254548Y5832433D1*
X5246264Y5816721D1*
X5233417Y5799038D1*
X5217962Y5783583D1*
X5200279Y5770736D1*
X5180804Y5760813D1*
X5160017Y5754059D1*
X5138429Y5750639D1*
X5116571D1*
X5094983Y5754059D1*
X5074196Y5760813D1*
X5054721Y5770736D1*
X5037038Y5783583D1*
X5021583Y5799038D1*
X5008736Y5816721D1*
X4998813Y5836196D1*
X4992059Y5856983D1*
X4988639Y5878571D1*
Y5900429D1*
X4992059Y5922017D1*
X4997497Y5939237D1*
X4958210Y5939210D1*
Y6034275D1*
X4820925Y6034547D1*
X4803987Y6037230D1*
X4787676Y6042529D1*
X4772396Y6050315D1*
X4758522Y6060395D1*
X4686224Y6132217D1*
X4536395Y6282522D1*
X4526315Y6296396D1*
X4518529Y6311676D1*
X4513230Y6327987D1*
X4510547Y6344925D1*
X4510210Y6446833D1*
Y6764659D1*
X4450210Y6764710D1*
X4450099Y6787364D1*
X4433449Y6778945D1*
X4415974Y6772410D1*
X4397886Y6767837D1*
X4379404Y6765282D1*
X4360754Y6764777D1*
X4342161Y6766326D1*
X4323852Y6769913D1*
X4306049Y6775492D1*
X4288967Y6782997D1*
X4280779Y6787435D1*
X4280791Y6764709D1*
X4212340D1*
X4211979Y5881592D1*
X4209505Y5865971D1*
X4204618Y5850929D1*
X4197438Y5836837D1*
X4188141Y5824042D1*
X4116773Y5752234D1*
X3717377Y5352838D1*
X3720253Y5332186D1*
Y5303814D1*
X3715814Y5275791D1*
X3707047Y5248807D1*
X3694166Y5223527D1*
X3677489Y5200573D1*
X3668643Y5191003D1*
X3686278Y5170277D1*
X3701103Y5146086D1*
X3711961Y5119873D1*
X3718584Y5092285D1*
X3720810Y5064000D1*
X3718584Y5035715D1*
X3711961Y5008127D1*
X3701103Y4981914D1*
X3686278Y4957723D1*
X3668643Y4937003D1*
X3686278Y4916277D1*
X3689945Y4910790D1*
X5071908Y4910480D1*
X5087529Y4908005D1*
X5102571Y4903118D1*
X5116663Y4895938D1*
X5129458Y4886642D1*
X5201266Y4815273D1*
X6127604Y3888935D1*
X6143500Y3889790D1*
X6168418Y3887829D1*
X6192723Y3881994D1*
X6215816Y3872428D1*
X6237128Y3859368D1*
X6256135Y3843135D1*
X6270463Y3826546D1*
X6284865Y3843135D1*
X6303872Y3859368D1*
X6325184Y3872428D1*
X6348277Y3881994D1*
X6372582Y3887829D1*
X6397500Y3889790D1*
X6422418Y3887829D1*
X6446723Y3881994D1*
X6469816Y3872428D1*
X6491128Y3859368D1*
X6510135Y3843135D1*
X6524463Y3826546D1*
X6538865Y3843135D1*
X6557872Y3859368D1*
X6579184Y3872428D1*
X6602277Y3881994D1*
X6626582Y3887829D1*
X6651500Y3889790D1*
X6676418Y3887829D1*
X6700723Y3881994D1*
X6723816Y3872428D1*
X6745128Y3859368D1*
X6764135Y3843135D1*
X6778463Y3826546D1*
X6792865Y3843135D1*
X6811872Y3859368D1*
X6833184Y3872428D1*
X6856277Y3881994D1*
X6880582Y3887829D1*
X6905500Y3889790D1*
X6930418Y3887829D1*
X6954723Y3881994D1*
X6977816Y3872428D1*
X6999128Y3859368D1*
X7018135Y3843135D1*
X7032463Y3826546D1*
X7046865Y3843135D1*
X7065872Y3859368D1*
X7087184Y3872428D1*
X7110277Y3881994D1*
X7134582Y3887829D1*
X7159500Y3889790D1*
X7184418Y3887829D1*
X7208723Y3881994D1*
X7231816Y3872428D1*
X7253128Y3859368D1*
X7272135Y3843135D1*
X7286463Y3826546D1*
X7300865Y3843135D1*
X7319872Y3859368D1*
X7341184Y3872428D1*
X7364277Y3881994D1*
X7388582Y3887829D1*
X7413500Y3889790D1*
X7438418Y3887829D1*
X7462723Y3881994D1*
X7485816Y3872428D1*
X7507128Y3859368D1*
X7526135Y3843135D1*
X7540463Y3826546D1*
X7554865Y3843135D1*
X7573872Y3859368D1*
X7595184Y3872428D1*
X7618277Y3881994D1*
X7642582Y3887829D1*
X7667500Y3889790D1*
X7692418Y3887829D1*
X7716723Y3881994D1*
X7739816Y3872428D1*
X7761128Y3859368D1*
X7780135Y3843135D1*
X7796368Y3824128D1*
X7809428Y3802816D1*
X7818994Y3779723D1*
X7824829Y3755418D1*
X7826790Y3730500D1*
X7824829Y3705582D1*
X7818994Y3681277D1*
X7809428Y3658184D1*
X7796368Y3636872D1*
X7780135Y3617865D1*
X7761128Y3601632D1*
X7739816Y3588572D1*
X7716723Y3579006D1*
X7692418Y3573171D1*
X7667500Y3571210D1*
X7651654Y3572097D1*
X6907458Y2828358D1*
X6894663Y2819062D1*
X6880571Y2811882D1*
X6865529Y2806994D1*
X6849908Y2804520D1*
X6748667Y2804210D1*
X5373592Y2804520D1*
X5357971Y2806994D1*
X5342929Y2811882D1*
X5328837Y2819062D1*
X5316042Y2828358D1*
X5244234Y2899727D1*
X4704724Y3439237D1*
X3690029Y3439210D1*
X3677489Y3422573D1*
X3668643Y3413003D1*
X3686278Y3392277D1*
X3701103Y3368086D1*
X3711961Y3341873D1*
X3718584Y3314285D1*
X3720810Y3286000D1*
X3718584Y3257715D1*
X3711961Y3230127D1*
X3701103Y3203914D1*
X3686278Y3179723D1*
X3668643Y3159003D1*
X3686278Y3138277D1*
X3701103Y3114086D1*
X3711961Y3087873D1*
X3718584Y3060285D1*
X3720810Y3032000D1*
X3718584Y3003715D1*
X3711961Y2976127D1*
X3701103Y2949914D1*
X3686278Y2925723D1*
X3668643Y2905003D1*
X3686278Y2884277D1*
X3701103Y2860086D1*
X3711961Y2833873D1*
X3718584Y2806285D1*
X3720810Y2778000D1*
X3718584Y2749715D1*
X3711961Y2722127D1*
X3701103Y2695914D1*
X3686278Y2671723D1*
X3668643Y2651003D1*
X3686278Y2630277D1*
X3701103Y2606086D1*
X3711961Y2579873D1*
X3718584Y2552285D1*
X3720810Y2524000D1*
X3718584Y2495715D1*
X3711961Y2468127D1*
X3701103Y2441914D1*
X3686278Y2417723D1*
X3668643Y2397003D1*
X3686278Y2376277D1*
X3701103Y2352086D1*
X3711961Y2325873D1*
X3718584Y2298285D1*
X3720810Y2270000D1*
X3718584Y2241715D1*
X3711961Y2214127D1*
X3701103Y2187914D1*
X3686278Y2163723D1*
X3668643Y2143003D1*
X3686278Y2122277D1*
X3701103Y2098086D1*
X3711961Y2071873D1*
X3718584Y2044285D1*
X3720810Y2016000D1*
X3718584Y1987715D1*
X3711961Y1960127D1*
X3701103Y1933914D1*
X3686278Y1909723D1*
X3667852Y1888148D1*
X3646277Y1869722D1*
X3622086Y1854897D1*
X3595873Y1844039D1*
X3568285Y1837416D1*
X3540000Y1835190D1*
X3511715Y1837416D1*
X3484127Y1844039D1*
X3457914Y1854897D1*
X3433723Y1869722D1*
X3412148Y1888148D1*
X3393722Y1909723D1*
X3378897Y1933914D1*
X3368039Y1960127D1*
X3361416Y1987715D1*
X3359190Y2016000D1*
X3361416Y2044285D1*
X3368039Y2071873D1*
X3378897Y2098086D1*
X3393722Y2122277D1*
X3411357Y2142997D1*
X3393722Y2163723D1*
X3378897Y2187914D1*
X3368039Y2214127D1*
X3361416Y2241715D1*
X3359190Y2270000D1*
X3361416Y2298285D1*
X3368039Y2325873D1*
X3378897Y2352086D1*
X3393722Y2376277D1*
X3411357Y2396997D1*
X3393722Y2417723D1*
X3378897Y2441914D1*
X3368039Y2468127D1*
X3361416Y2495715D1*
X3359190Y2524000D1*
X3361416Y2552285D1*
X3368039Y2579873D1*
X3378897Y2606086D1*
X3393722Y2630277D1*
X3411357Y2650997D1*
X3393722Y2671723D1*
X3378897Y2695914D1*
X3368039Y2722127D1*
X3361416Y2749715D1*
X3359190Y2778000D1*
X3361416Y2806285D1*
X3368039Y2833873D1*
X3378897Y2860086D1*
X3393722Y2884277D1*
X3411357Y2904997D1*
X3393722Y2925723D1*
X3378897Y2949914D1*
X3368039Y2976127D1*
X3361416Y3003715D1*
X3359190Y3032000D1*
X3361416Y3060285D1*
X3368039Y3087873D1*
X3378897Y3114086D1*
X3393722Y3138277D1*
X3411357Y3158997D1*
X3393722Y3179723D1*
X3378897Y3203914D1*
X3368039Y3230127D1*
X3361416Y3257715D1*
X3359190Y3286000D1*
X3361416Y3314285D1*
X3368039Y3341873D1*
X3378897Y3368086D1*
X3393722Y3392277D1*
X3411357Y3412997D1*
X3393722Y3433723D1*
X3378897Y3457914D1*
X3368039Y3484127D1*
X3361416Y3511715D1*
X3359190Y3540000D1*
X3361416Y3568285D1*
X3368039Y3595873D1*
X3378897Y3622086D1*
X3393722Y3646277D1*
X3411357Y3666997D1*
X3393722Y3687723D1*
X3378897Y3711914D1*
X3368039Y3738127D1*
X3361416Y3765715D1*
X3359190Y3794000D1*
X3361416Y3822285D1*
X3368039Y3849873D1*
X3378897Y3876086D1*
X3393722Y3900277D1*
X3411357Y3920997D1*
X3393722Y3941723D1*
X3378897Y3965914D1*
X3368039Y3992127D1*
X3361416Y4019715D1*
X3359190Y4048000D1*
X3361416Y4076285D1*
X3368039Y4103873D1*
X3378897Y4130086D1*
X3393722Y4154277D1*
X3411357Y4174997D1*
X3393722Y4195723D1*
X3378897Y4219914D1*
X3368039Y4246127D1*
X3361416Y4273715D1*
X3359190Y4302000D1*
X3361416Y4330285D1*
X3368039Y4357873D1*
X3378897Y4384086D1*
X3393722Y4408277D1*
X3411357Y4428997D1*
X3393722Y4449723D1*
X3390055Y4455210D1*
X3341592Y4455520D1*
X3325971Y4457995D1*
X3310929Y4462882D1*
X3296837Y4470062D1*
X3284042Y4479358D1*
X3212234Y4550727D1*
X3145858Y4617542D1*
X3136562Y4630337D1*
X3129382Y4644429D1*
X3124495Y4659471D1*
X3122020Y4675092D1*
X3121710Y4776333D1*
Y6165305D1*
X2926752Y6360209D1*
X1696378Y6360210D1*
X1684984Y6347516D1*
X1665834Y6331161D1*
X1644361Y6318002D1*
X1621094Y6308365D1*
X1596606Y6302486D1*
X1571500Y6300510D1*
X1546394Y6302486D1*
X1521906Y6308365D1*
X1498639Y6318002D1*
X1477166Y6331161D1*
X1458016Y6347516D1*
X1441661Y6366666D1*
X1428502Y6388139D1*
X1418865Y6411406D1*
X1412986Y6435894D1*
X1411010Y6461000D1*
X1412986Y6486106D1*
X1418865Y6510594D1*
X1428502Y6533861D1*
X1441661Y6555334D1*
X1458016Y6574484D1*
X1477166Y6590839D1*
X1498639Y6603998D1*
X1521906Y6613635D1*
X1546394Y6619514D1*
X1571500Y6621490D1*
X1596606Y6619514D1*
X1621094Y6613635D1*
X1644361Y6603998D1*
X1665834Y6590839D1*
X1684984Y6574484D1*
X1696250Y6561789D1*
X2976408Y6561480D1*
X2992029Y6559005D1*
X3007071Y6554118D1*
X3021163Y6546938D1*
X3033958Y6537642D1*
X3105766Y6466273D1*
X3299142Y6272458D1*
X3308438Y6259663D1*
X3315618Y6245571D1*
X3320505Y6230529D1*
X3322980Y6214908D1*
X3323290Y6113667D1*
Y4724695D1*
X3390380Y4657659D1*
X3402511Y4673427D1*
X3411357Y4682997D1*
X3393722Y4703723D1*
X3378897Y4727914D1*
X3368039Y4754127D1*
X3361416Y4781715D1*
X3359190Y4810000D1*
X3361416Y4838285D1*
X3368039Y4865873D1*
X3378897Y4892086D1*
X3393722Y4916277D1*
X3411357Y4936997D1*
X3393722Y4957723D1*
X3378897Y4981914D1*
X3368039Y5008127D1*
X3361416Y5035715D1*
X3359190Y5064000D1*
X3361416Y5092285D1*
X3368039Y5119873D1*
X3378897Y5146086D1*
X3393722Y5170277D1*
X3411357Y5190997D1*
X3393722Y5211723D1*
X3378897Y5235914D1*
X3368039Y5262127D1*
X3361416Y5289715D1*
X3359190Y5318000D1*
X3361416Y5346285D1*
X3368039Y5373873D1*
X3378897Y5400086D1*
X3393722Y5424277D1*
X3411357Y5444997D1*
X3393722Y5465723D1*
X3378897Y5489914D1*
X3368039Y5516127D1*
X3361416Y5543715D1*
X3359190Y5572000D1*
X3361416Y5600285D1*
X3368039Y5627873D1*
X3378897Y5654086D1*
X3393722Y5678277D1*
X3411357Y5698997D1*
X3393722Y5719723D1*
X3378897Y5743914D1*
X3368039Y5770127D1*
X3361416Y5797715D1*
X3359190Y5826000D1*
X3361416Y5854285D1*
X3368039Y5881873D1*
X3378897Y5908086D1*
X3393722Y5932277D1*
X3411357Y5952997D1*
X3393722Y5973723D1*
X3378897Y5997914D1*
X3368039Y6024127D1*
X3361416Y6051715D1*
X3359190Y6080000D1*
X3361416Y6108285D1*
X3368039Y6135873D1*
X3378897Y6162086D1*
X3393722Y6186277D1*
X3412148Y6207852D1*
X3433723Y6226278D1*
X3457914Y6241103D1*
X3484127Y6251961D1*
X3511715Y6258584D1*
X3540000Y6260810D1*
X3568285Y6258584D1*
X3595873Y6251961D1*
X3622086Y6241103D1*
X3646277Y6226278D1*
X3667852Y6207852D1*
X3686278Y6186277D1*
X3701103Y6162086D1*
X3711961Y6135873D1*
X3718584Y6108285D1*
X3720810Y6080000D1*
X3718584Y6051715D1*
X3711961Y6024127D1*
X3701103Y5997914D1*
X3686278Y5973723D1*
X3668643Y5953003D1*
X3686278Y5932277D1*
X3701103Y5908086D1*
X3711961Y5881873D1*
X3718584Y5854285D1*
X3720810Y5826000D1*
X3718584Y5797715D1*
X3711961Y5770127D1*
X3701103Y5743914D1*
X3686278Y5719723D1*
X3668643Y5699003D1*
X3686278Y5678277D1*
X3701103Y5654086D1*
X3710713Y5631255D1*
X4010689Y5931228D1*
X4010710Y6764773D1*
X3942211Y6764709D1*
X3942099Y6787364D1*
X3925449Y6778945D1*
X3907974Y6772410D1*
X3889886Y6767837D1*
X3871404Y6765282D1*
X3852754Y6764777D1*
X3834161Y6766326D1*
X3815852Y6769913D1*
X3798049Y6775492D1*
X3780967Y6782997D1*
X3764816Y6792336D1*
X3749790Y6803395D1*
X3736072Y6816041D1*
X3723829Y6830120D1*
X3713210Y6845460D1*
X3704343Y6861875D1*
X3697336Y6879167D1*
X3692275Y6897124D1*
X3689221Y6915530D1*
X3688211Y6934214D1*
X3688802Y7018143D1*
X3691383Y7036621D1*
X3695981Y7054703D1*
X3702541Y7072169D1*
X3710984Y7088806D1*
X3721206Y7104414D1*
X3733083Y7118802D1*
X3746472Y7131796D1*
X3749828Y7134631D1*
X3738736Y7150221D1*
X3728813Y7169696D1*
X3722059Y7190483D1*
X3718639Y7212071D1*
Y7233929D1*
X3722059Y7255517D1*
X3728414Y7275222D1*
X1081805Y7275250D1*
X1081750Y1081831D1*
X8411393Y1081750D1*
X8418158Y7275200D1*
X7288654Y7275250D1*
X7294941Y7255517D1*
X7298361Y7233929D1*
Y7212071D1*
X7294941Y7190483D1*
X7289503Y7173263D1*
X7328790Y7173290D1*
Y6764710D1*
X7268725D1*
X7268790Y5116461D1*
X7280625Y5103951D1*
X7286463Y5096546D1*
X7300865Y5113135D1*
X7312697Y5123712D1*
X7313021Y5262408D1*
X7315495Y5278029D1*
X7320382Y5293071D1*
X7327562Y5307163D1*
X7336859Y5319958D1*
X7408227Y5391766D1*
X7475042Y5458141D1*
X7487837Y5467438D1*
X7501929Y5474618D1*
X7516971Y5479505D1*
X7532592Y5481979D1*
X7633833Y5482290D1*
X7992908Y5481979D1*
X8008529Y5479505D1*
X8023571Y5474618D1*
X8037663Y5467438D1*
X8050458Y5458141D1*
X8122266Y5386773D1*
X8188641Y5319958D1*
X8197938Y5307163D1*
X8205118Y5293071D1*
X8210005Y5278029D1*
X8212479Y5262408D1*
X8212790Y5161167D1*
X8212479Y1627092D1*
X8210005Y1611471D1*
X8205118Y1596429D1*
X8197938Y1582337D1*
X8188641Y1569542D1*
X8117273Y1497734D1*
X7732958Y1113859D1*
X7720163Y1104562D1*
X7706071Y1097382D1*
X7691029Y1092495D1*
X7675408Y1090021D1*
X7574167Y1089710D1*
X1881092Y1090021D1*
X1865471Y1092495D1*
X1850429Y1097382D1*
X1836337Y1104562D1*
X1823542Y1113859D1*
X1751734Y1185227D1*
X1367858Y1569542D1*
X1358562Y1582337D1*
X1351382Y1596429D1*
X1346494Y1611471D1*
X1344020Y1627092D1*
X1343710Y1728333D1*
X1344020Y5325908D1*
X1346494Y5341529D1*
X1351382Y5356571D1*
X1358562Y5370663D1*
X1367858Y5383458D1*
X1411965Y5428004D1*
X1411010Y5445000D1*
X1412986Y5470106D1*
X1418865Y5494594D1*
X1428502Y5517861D1*
X1441661Y5539334D1*
X1458016Y5558484D1*
X1470711Y5569750D1*
X1471021Y5643408D1*
X1473495Y5659029D1*
X1478382Y5674071D1*
X1485562Y5688163D1*
X1494859Y5700958D1*
X1566227Y5772766D1*
X1696542Y5902641D1*
X1709337Y5911938D1*
X1723429Y5919118D1*
X1738471Y5924005D1*
X1754092Y5926479D1*
X1865815Y5926790D1*
X1878511Y5943427D1*
X1887357Y5952997D1*
X1869722Y5973723D1*
X1854897Y5997914D1*
X1844039Y6024127D1*
X1837416Y6051715D1*
X1835190Y6080000D1*
X1837416Y6108285D1*
X1844039Y6135873D1*
X1854897Y6162086D1*
X1869722Y6186277D1*
X1888148Y6207852D1*
X1909723Y6226278D1*
X1933914Y6241103D1*
X1960127Y6251961D1*
X1987715Y6258584D1*
X2016000Y6260810D1*
X2044285Y6258584D1*
X2071873Y6251961D1*
X2098086Y6241103D1*
X2122277Y6226278D1*
X2143852Y6207852D1*
X2162278Y6186277D1*
X2177103Y6162086D1*
X2187961Y6135873D1*
X2194584Y6108285D1*
X2196810Y6080000D1*
X2194584Y6051715D1*
X2187961Y6024127D1*
X2177103Y5997914D1*
X2162278Y5973723D1*
X2144643Y5953003D1*
X2162278Y5932277D1*
X2177103Y5908086D1*
X2187961Y5881873D1*
X2194584Y5854285D1*
X2196810Y5826000D1*
X2194584Y5797715D1*
X2187961Y5770127D1*
X2177103Y5743914D1*
X2162278Y5719723D1*
X2144643Y5699003D1*
X2162278Y5678277D1*
X2177103Y5654086D1*
X2187961Y5627873D1*
X2194584Y5600285D1*
X2196810Y5572000D1*
X2194584Y5543715D1*
X2187961Y5516127D1*
X2177103Y5489914D1*
X2162278Y5465723D1*
X2144643Y5445003D1*
X2162278Y5424277D1*
X2177103Y5400086D1*
X2187961Y5373873D1*
X2194584Y5346285D1*
X2196810Y5318000D1*
X2194584Y5289715D1*
X2187961Y5262127D1*
X2177103Y5235914D1*
X2162278Y5211723D1*
X2144643Y5191003D1*
X2162278Y5170277D1*
X2177103Y5146086D1*
X2187961Y5119873D1*
X2194584Y5092285D1*
X2196810Y5064000D1*
X2194584Y5035715D1*
X2187961Y5008127D1*
X2177103Y4981914D1*
X2162278Y4957723D1*
X2144643Y4937003D1*
X2162278Y4916277D1*
X2177103Y4892086D1*
X2187961Y4865873D1*
X2194584Y4838285D1*
X2196810Y4810000D1*
X2194584Y4781715D1*
X2187961Y4754127D1*
X2177103Y4727914D1*
X2162278Y4703723D1*
X2144643Y4683003D1*
X2162278Y4662277D1*
X2177103Y4638086D1*
X2187961Y4611873D1*
X2194584Y4584285D1*
X2196810Y4556000D1*
X2194584Y4527715D1*
X2187961Y4500127D1*
X2177103Y4473914D1*
X2162278Y4449723D1*
X2144643Y4429003D1*
X2162278Y4408277D1*
X2177103Y4384086D1*
X2187961Y4357873D1*
X2194584Y4330285D1*
X2196810Y4302000D1*
X2194584Y4273715D1*
X2187961Y4246127D1*
X2177103Y4219914D1*
X2162278Y4195723D1*
X2144643Y4175003D1*
X2162278Y4154277D1*
X2177103Y4130086D1*
X2187961Y4103873D1*
X2194584Y4076285D1*
X2196810Y4048000D1*
X2194584Y4019715D1*
X2187961Y3992127D1*
X2177103Y3965914D1*
X2162278Y3941723D1*
X2144643Y3921003D1*
X2162278Y3900277D1*
X2177103Y3876086D1*
X2187961Y3849873D1*
X2194584Y3822285D1*
X2196810Y3794000D1*
X2194584Y3765715D1*
X2187961Y3738127D1*
X2177103Y3711914D1*
X2162278Y3687723D1*
X2144643Y3667003D1*
X2162278Y3646277D1*
X2177103Y3622086D1*
X2187961Y3595873D1*
X2194584Y3568285D1*
X2196810Y3540000D1*
X2194584Y3511715D1*
X2187961Y3484127D1*
X2177103Y3457914D1*
X2162278Y3433723D1*
X2144643Y3413003D1*
X2162278Y3392277D1*
X2177103Y3368086D1*
X2187961Y3341873D1*
X2194584Y3314285D1*
X2196810Y3286000D1*
X2194584Y3257715D1*
X2187961Y3230127D1*
X2177103Y3203914D1*
X2162278Y3179723D1*
X2144643Y3159003D1*
X2162278Y3138277D1*
X2177103Y3114086D1*
X2187961Y3087873D1*
X2194584Y3060285D1*
X2196810Y3032000D1*
X2194584Y3003715D1*
X2187961Y2976127D1*
X2177103Y2949914D1*
X2162278Y2925723D1*
X2144643Y2905003D1*
X2156313Y2892038D1*
X2167318Y2876971D1*
X2176712Y2860850D1*
X2184394Y2843846D1*
X2190283Y2826142D1*
X2194317Y2807924D1*
X2196451Y2789389D1*
X2196569Y2768671D1*
X2194646Y2750112D1*
X2190821Y2731850D1*
X2185134Y2714079D1*
X2177646Y2696989D1*
X2168437Y2680762D1*
X2157604Y2665570D1*
X2144683Y2650997D1*
X2162278Y2630277D1*
X2177103Y2606086D1*
X2187961Y2579873D1*
X2194584Y2552285D1*
X2196810Y2524000D1*
X2194584Y2495715D1*
X2187961Y2468127D1*
X2177103Y2441914D1*
X2162278Y2417723D1*
X2144643Y2397003D1*
X2162278Y2376277D1*
X2177103Y2352086D1*
X2187961Y2325873D1*
X2194584Y2298285D1*
X2196810Y2270000D1*
X2194584Y2241715D1*
X2187961Y2214127D1*
X2177103Y2187914D1*
X2162278Y2163723D1*
X2144643Y2143003D1*
X2162278Y2122277D1*
X2177103Y2098086D1*
X2187961Y2071873D1*
X2194584Y2044285D1*
X2196810Y2016000D1*
X2194584Y1987715D1*
X2187961Y1960127D1*
X2177103Y1933914D1*
X2162278Y1909723D1*
X2143852Y1888148D1*
X2122277Y1869722D1*
X2098086Y1854897D1*
X2071873Y1844039D1*
X2044285Y1837416D1*
X2021597Y1835410D1*
X2121296Y1735743D1*
X4006232Y1735790D1*
X4554042Y2283141D1*
X4566837Y2292438D1*
X4580929Y2299618D1*
X4595971Y2304505D1*
X4611592Y2306979D1*
X4712833Y2307290D1*
X4767794D1*
X4767710Y2410790D1*
X5106290D1*
X5106540Y2388216D1*
X5123197Y2396619D1*
X5140678Y2403138D1*
X5158771Y2407694D1*
X5177255Y2410231D1*
X5195906Y2410719D1*
X5214497Y2409151D1*
X5232803Y2405548D1*
X5250601Y2399951D1*
X5267675Y2392431D1*
X5283818Y2383077D1*
X5298834Y2372003D1*
X5312539Y2359344D1*
X5317987Y2353434D1*
X5335055Y2370229D1*
X5356546Y2385843D1*
X5380216Y2397904D1*
X5405480Y2406113D1*
X5431718Y2410268D1*
X5458282D1*
X5484520Y2406113D1*
X5509784Y2397904D1*
X5533454Y2385843D1*
X5554945Y2370229D1*
X5573729Y2351445D1*
X5589343Y2329954D1*
X5600947Y2307275D1*
X5643408Y2306980D1*
X5659029Y2304506D1*
X5674071Y2299618D1*
X5688163Y2292438D1*
X5700958Y2283142D1*
X5772766Y2211773D1*
X5839142Y2144958D1*
X5848438Y2132163D1*
X5855618Y2118071D1*
X5860506Y2103029D1*
X5862980Y2087408D1*
X5863290Y1986167D1*
X5862980Y1754092D1*
X5860506Y1738471D1*
X5855618Y1723429D1*
X5848438Y1709337D1*
X5839142Y1696542D1*
X5767773Y1624734D1*
X5510458Y1367858D1*
X5497663Y1358562D1*
X5483571Y1351382D1*
X5468529Y1346495D1*
X5452908Y1344020D1*
X5351667Y1343710D1*
X2008092Y1344020D1*
X1992471Y1346495D1*
X1977429Y1351382D1*
X1963337Y1358562D1*
X1950542Y1367858D1*
X1878734Y1439227D1*
X1545335Y1772626D1*
X1545290Y1676815D1*
X1930762Y1291277D1*
X7625810Y1291290D1*
X8011223Y1676762D1*
X8011210Y5212747D1*
X7943218Y5280743D1*
X7582227Y5280710D1*
X7514257Y5212718D1*
X7514290Y5159799D1*
X7826791Y5159789D1*
Y4841209D1*
X7508211D1*
Y4872436D1*
X7496729Y4864683D1*
X7474458Y4853335D1*
X7450686Y4845611D1*
X7425998Y4841701D1*
X7401002D1*
X7376314Y4845611D1*
X7352542Y4853335D1*
X7330271Y4864683D1*
X7310049Y4879375D1*
X7292375Y4897049D1*
X7286537Y4904454D1*
X7272135Y4887865D1*
X7253128Y4871632D1*
X7231816Y4858572D1*
X7208723Y4849006D1*
X7184418Y4843171D1*
X7159500Y4841210D1*
X7134582Y4843171D1*
X7110277Y4849006D1*
X7087184Y4858572D1*
X7065872Y4871632D1*
X7046865Y4887865D1*
X7032537Y4904454D1*
X7018135Y4887865D1*
X6999128Y4871632D1*
X6977816Y4858572D1*
X6954723Y4849006D1*
X6930418Y4843171D1*
X6905500Y4841210D1*
X6880582Y4843171D1*
X6856277Y4849006D1*
X6833184Y4858572D1*
X6811872Y4871632D1*
X6792865Y4887865D1*
X6778537Y4904454D1*
X6764135Y4887865D1*
X6745128Y4871632D1*
X6723816Y4858572D1*
X6700723Y4849006D1*
X6676418Y4843171D1*
X6651500Y4841210D1*
X6626582Y4843171D1*
X6602277Y4849006D1*
X6579184Y4858572D1*
X6557872Y4871632D1*
X6538865Y4887865D1*
X6524537Y4904454D1*
X6510135Y4887865D1*
X6491128Y4871632D1*
X6469816Y4858572D1*
X6446723Y4849006D1*
X6422418Y4843171D1*
X6397500Y4841210D1*
X6372582Y4843171D1*
X6348277Y4849006D1*
X6325184Y4858572D1*
X6303872Y4871632D1*
X6302759Y4872509D1*
X6302791Y4841209D1*
X5984211D1*
Y4872436D1*
X5972729Y4864683D1*
X5950458Y4853335D1*
X5926686Y4845611D1*
X5901998Y4841701D1*
X5877002D1*
X5852314Y4845611D1*
X5828542Y4853335D1*
X5806271Y4864683D1*
X5786049Y4879375D1*
X5768375Y4897049D1*
X5753683Y4917271D1*
X5742335Y4939542D1*
X5734611Y4963314D1*
X5730701Y4988002D1*
Y5012998D1*
X5734611Y5037686D1*
X5742335Y5061458D1*
X5753683Y5083729D1*
X5768375Y5103951D1*
X5780202Y5116219D1*
X5780210Y5526138D1*
X4720372Y5526210D1*
X4720290Y5471210D1*
X4391710D1*
Y5799790D1*
X4415043D1*
X7050157Y6764710D2*
X7014793D1*
X7014790Y5116461D1*
X7026625Y5103951D1*
X7032463Y5096546D1*
X7046865Y5113135D1*
X7050202Y5116219D1*
X7050210Y6764628D1*
X6796248Y6804724D2*
X6778568Y6822110D1*
X6760752Y6804724D1*
X6760790Y5116461D1*
X6772625Y5103951D1*
X6778463Y5096546D1*
X6792865Y5113135D1*
X6796202Y5116219D1*
X6796210Y6804732D1*
X6542272Y6764710D2*
X6506725D1*
X6506790Y5116461D1*
X6518625Y5103951D1*
X6524463Y5096546D1*
X6538865Y5113135D1*
X6542202Y5116219D1*
X6542210Y6764628D1*
X6288157Y6764710D2*
X6228210D1*
X6228099Y6787364D1*
X6211449Y6778945D1*
X6193974Y6772410D1*
X6175886Y6767837D1*
X6157404Y6765282D1*
X6138754Y6764777D1*
X6120161Y6766326D1*
X6101852Y6769913D1*
X6084049Y6775492D1*
X6066967Y6782997D1*
X6050816Y6792336D1*
X6035790Y6803395D1*
X6022072Y6816041D1*
X6016497Y6822083D1*
X5998752Y6804724D1*
X5998790Y5159810D1*
X6288218Y5159789D1*
X6288210Y6764628D1*
X5720212Y7003948D2*
X5722294Y7030483D1*
X5728496Y7056313D1*
X5738662Y7080856D1*
X5752542Y7103506D1*
X5769794Y7123706D1*
X5781879Y7134561D1*
X5770736Y7150221D1*
X5760813Y7169696D1*
X5754059Y7190483D1*
X5750639Y7212071D1*
Y7233929D1*
X5754059Y7255517D1*
X5760414Y7275222D1*
X4748602Y7275250D1*
X4754941Y7255517D1*
X4758361Y7233929D1*
Y7212071D1*
X4754941Y7190483D1*
X4749503Y7173263D1*
X4788790Y7173290D1*
Y6764710D1*
X4728725D1*
X4728790Y6398701D1*
X4874726Y6252834D1*
X4958289Y6252790D1*
X4958210Y6347790D1*
X5296790D1*
Y6325094D1*
X5316716Y6334904D1*
X5341980Y6343113D1*
X5368218Y6347268D1*
X5394782D1*
X5421020Y6343113D1*
X5446284Y6334904D1*
X5469954Y6322843D1*
X5491445Y6307229D1*
X5510229Y6288445D1*
X5525843Y6266954D1*
X5533534Y6252763D1*
X5780263Y6252790D1*
X5780210Y6804695D1*
X5760771Y6824055D1*
X5745157Y6845546D1*
X5733096Y6869216D1*
X5724887Y6894480D1*
X5720732Y6920718D1*
X5720210Y6980666D1*
Y7003726D1*
X4806876Y2002210D2*
X4767710D1*
Y2105660D1*
X4661284Y2105710D1*
X4113458Y1558359D1*
X4100636Y1549047D1*
X4116000Y1545290D1*
X5403253D1*
X5661757Y1803796D1*
X5661710Y2037716D1*
X5598745Y2100716D1*
X5589343Y2083046D1*
X5573729Y2061555D1*
X5554945Y2042771D1*
X5552621Y2040939D1*
X5563764Y2025279D1*
X5573687Y2005804D1*
X5580441Y1985017D1*
X5583861Y1963429D1*
Y1941571D1*
X5580441Y1919983D1*
X5573687Y1899196D1*
X5563764Y1879721D1*
X5550917Y1862038D1*
X5535462Y1846583D1*
X5517779Y1833736D1*
X5498304Y1823813D1*
X5477517Y1817059D1*
X5455929Y1813639D1*
X5434071D1*
X5412483Y1817059D1*
X5391696Y1823813D1*
X5372221Y1833736D1*
X5354538Y1846583D1*
X5339083Y1862038D1*
X5326236Y1879721D1*
X5318048Y1895433D1*
X5309764Y1879721D1*
X5296917Y1862038D1*
X5281462Y1846583D1*
X5263779Y1833736D1*
X5244304Y1823813D1*
X5223517Y1817059D1*
X5201929Y1813639D1*
X5180071D1*
X5158483Y1817059D1*
X5137696Y1823813D1*
X5118221Y1833736D1*
X5100538Y1846583D1*
X5085083Y1862038D1*
X5072236Y1879721D1*
X5064048Y1895433D1*
X5055764Y1879721D1*
X5042917Y1862038D1*
X5027462Y1846583D1*
X5009779Y1833736D1*
X4990304Y1823813D1*
X4969517Y1817059D1*
X4947929Y1813639D1*
X4926071D1*
X4904483Y1817059D1*
X4883696Y1823813D1*
X4864221Y1833736D1*
X4846538Y1846583D1*
X4831083Y1862038D1*
X4818236Y1879721D1*
X4808313Y1899196D1*
X4801559Y1919983D1*
X4798139Y1941571D1*
Y1963429D1*
X4801559Y1985017D1*
X4806997Y2002237D1*
X1731495Y5432408D2*
X1727556Y5407534D1*
X1719773Y5383583D1*
X1708340Y5361144D1*
X1693538Y5340770D1*
X1675730Y5322962D1*
X1655356Y5308160D1*
X1632917Y5296727D1*
X1608966Y5288944D1*
X1584092Y5285005D1*
X1558908D1*
X1554557Y5285520D1*
X1545290Y5271333D1*
Y3973872D1*
X1838528Y4267067D1*
X1835747Y4287814D1*
Y4316186D1*
X1840186Y4344209D1*
X1848953Y4371193D1*
X1861834Y4396473D1*
X1878511Y4419427D1*
X1887357Y4428997D1*
X1869722Y4449723D1*
X1854897Y4473914D1*
X1844039Y4500127D1*
X1837416Y4527715D1*
X1835190Y4556000D1*
X1837416Y4584285D1*
X1844039Y4611873D1*
X1854897Y4638086D1*
X1869722Y4662277D1*
X1887357Y4682997D1*
X1869722Y4703723D1*
X1854897Y4727914D1*
X1844039Y4754127D1*
X1837416Y4781715D1*
X1835190Y4810000D1*
X1837416Y4838285D1*
X1844039Y4865873D1*
X1854897Y4892086D1*
X1869722Y4916277D1*
X1887357Y4936997D1*
X1869722Y4957723D1*
X1854897Y4981914D1*
X1844039Y5008127D1*
X1837416Y5035715D1*
X1835190Y5064000D1*
X1837416Y5092285D1*
X1844039Y5119873D1*
X1854897Y5146086D1*
X1869722Y5170277D1*
X1887357Y5190997D1*
X1869722Y5211723D1*
X1854897Y5235914D1*
X1844039Y5262127D1*
X1837416Y5289715D1*
X1835190Y5318000D1*
X1837416Y5346285D1*
X1844039Y5373873D1*
X1854897Y5400086D1*
X1869722Y5424277D1*
X1887357Y5444997D1*
X1869722Y5465723D1*
X1854897Y5489914D1*
X1844039Y5516127D1*
X1837416Y5543715D1*
X1835190Y5572000D1*
X1837416Y5600285D1*
X1844039Y5627873D1*
X1854897Y5654086D1*
X1869722Y5678277D1*
X1887357Y5698997D1*
X1869722Y5719723D1*
X1866055Y5725210D1*
X1803721D1*
X1672338Y5593799D1*
X1672290Y5569966D1*
X1684984Y5558484D1*
X1701339Y5539334D1*
X1714498Y5517861D1*
X1724135Y5494594D1*
X1730014Y5470106D1*
X1731990Y5445000D1*
X1731495Y5432408D1*
X3689945Y4709210D2*
X3677489Y4692573D1*
X3668643Y4683003D1*
X3686278Y4662277D1*
X3689945Y4656790D1*
X5071939Y4656476D1*
X5065782Y4665679D1*
X5022278Y4709183D1*
X3690159Y4709210D1*
X3689945Y4455210D2*
X3677489Y4438573D1*
X3668643Y4429003D1*
X3686278Y4408277D1*
X3689945Y4402790D1*
X5008408Y4402479D1*
X5024029Y4400005D1*
X5039071Y4395118D1*
X5053163Y4387938D1*
X5065958Y4378641D1*
X5137766Y4307273D1*
X5731027Y3714012D1*
X5730210Y3730500D1*
X5731097Y3746346D1*
X5022211Y4455250D1*
X3690159Y4455210D1*
X3689945Y4201210D2*
X3677489Y4184573D1*
X3668643Y4175003D1*
X3686278Y4154277D1*
X3689945Y4148790D1*
X4944908Y4148479D1*
X4960529Y4146005D1*
X4975571Y4141118D1*
X4989663Y4133938D1*
X5002458Y4124641D1*
X5074266Y4053273D1*
X5740742Y3386797D1*
X5780029Y3386790D1*
X5766757Y3394959D1*
X5754710Y3405253D1*
X4958711Y4201251D1*
X3690096Y4201210D1*
X3689945Y3947210D2*
X3677489Y3930573D1*
X3668643Y3921003D1*
X3686278Y3900277D1*
X3689945Y3894790D1*
X4852908Y3894480D1*
X4868529Y3892006D1*
X4883571Y3887118D1*
X4897663Y3879938D1*
X4910458Y3870642D1*
X4982266Y3799273D1*
X5568695Y3212844D1*
X5629711Y3212800D1*
X4895258Y3947203D1*
X3690034Y3947210D1*
X3689945Y3693210D2*
X3677489Y3676573D1*
X3668643Y3667003D1*
X3686278Y3646277D1*
X3689945Y3640790D1*
X4754408Y3640480D1*
X4770029Y3638006D1*
X4785071Y3633118D1*
X4799163Y3625938D1*
X4811958Y3616642D1*
X4883766Y3545273D1*
X5423276Y3005763D1*
X6800185Y3005790D1*
X6806371Y3011910D1*
X6795010Y3011220D1*
X5519082Y3011530D1*
X5503461Y3014004D1*
X5488419Y3018892D1*
X5474327Y3026072D1*
X5461532Y3035368D1*
X5389724Y3106737D1*
X4803295Y3693166D1*
X3690091Y3693210D1*
X6016463Y3634454D2*
X6002135Y3617865D1*
X5983128Y3601632D1*
X5961816Y3588572D1*
X5938723Y3579006D1*
X5932657Y3577295D1*
X6099893Y3577290D1*
X6082542Y3583335D1*
X6060271Y3594683D1*
X6040049Y3609375D1*
X6022375Y3627049D1*
X6016537Y3634454D1*
X6778463D2*
X6764135Y3617865D1*
X6745128Y3601632D1*
X6723816Y3588572D1*
X6700723Y3579006D1*
X6676418Y3573171D1*
X6651500Y3571210D1*
X6635654Y3572097D1*
X6278247Y3214710D1*
X6296990Y3212800D1*
X6753175D1*
X7117336Y3576874D1*
X7098542Y3583335D1*
X7076271Y3594683D1*
X7056049Y3609375D1*
X7038375Y3627049D1*
X7032537Y3634454D1*
X7018135Y3617865D1*
X6999128Y3601632D1*
X6977816Y3588572D1*
X6954723Y3579006D1*
X6930418Y3573171D1*
X6905500Y3571210D1*
X6880582Y3573171D1*
X6856277Y3579006D1*
X6833184Y3588572D1*
X6811872Y3601632D1*
X6792865Y3617865D1*
X6778537Y3634454D1*
X4556000Y5291699D2*
D65*
Y4963301D1*
X4391801Y5127500D2*
X4720199D1*
X6143500Y6969000D2*
Y6764801D1*
X4365500Y6969000D2*
Y6764801D1*
X5191000Y2410699D2*
Y2206500D1*
X3857500Y6969000D2*
Y6764801D1*
X3688301Y6969000D2*
X3857500D1*
X2016000Y2778000D2*
X2196719D1*
X6143500Y5159698D2*
Y4841300D1*
X7667500Y5159698D2*
Y4841300D1*
Y5000500D2*
X7826700D1*
D17*
X4556000Y5127500D3*
D21*
Y5635500D3*
D22*
X7159500Y6969000D3*
D26*
X6905500D3*
X6651500D3*
D22*
X6397500D3*
D26*
X6143500D3*
X5889500D3*
D22*
X4619500D3*
D26*
X4365500D3*
D22*
X5127500Y6143500D3*
D26*
X5381500D3*
D22*
X4937000Y2206500D3*
D26*
X5191000D3*
X5445000D3*
D22*
X4111500Y6969000D3*
D26*
X3857500D3*
D27*
X1571500Y6461000D3*
D31*
Y5445000D3*
D33*
X3540000Y6080000D3*
Y5826000D3*
Y5572000D3*
Y5318000D3*
Y5064000D3*
Y4810000D3*
Y4556000D3*
Y4302000D3*
Y4048000D3*
Y3794000D3*
Y3540000D3*
X2016000Y2778000D3*
Y3032000D3*
X3540000Y2778000D3*
Y2524000D3*
Y2270000D3*
Y2016000D3*
X2016000D3*
Y2270000D3*
Y2524000D3*
X3540000Y3286000D3*
Y3032000D3*
X2016000Y3286000D3*
Y3540000D3*
Y3794000D3*
Y4048000D3*
Y4302000D3*
Y4556000D3*
Y4810000D3*
Y5064000D3*
Y5318000D3*
Y5572000D3*
Y5826000D3*
Y6080000D3*
D25*
X5889500Y3730500D3*
X6143500D3*
X6397500D3*
X6651500D3*
X6905500D3*
X7159500D3*
X7413500D3*
X7667500D3*
X5889500Y5000500D3*
D37*
X6143500D3*
D25*
X6397500D3*
X6651500D3*
X6905500D3*
X7159500D3*
X7413500D3*
D37*
X7667500D3*
M02*
