%TF.GenerationSoftware,Novarm,DipTrace,3.2.0.1*%
%TF.CreationDate,2018-02-07T16:10:38+00:00*%
%FSLAX35Y35*%
%MOMM*%
%TF.FileFunction,Plated,1,2,PTH,Drill*%
%TF.Part,Single*%
%TA.AperFunction,ComponentDrill*%
%ADD39C,1.1*%
%ADD40C,0.9*%
%ADD41C,0.96533*%
%ADD42C,0.965*%
G75*
G01*
D40*
X4556000Y5127500D3*
Y5635500D3*
D39*
X7159500Y6969000D3*
X6905500D3*
X6651500D3*
X6397500D3*
X6143500D3*
X5889500D3*
X4619500D3*
X4365500D3*
X5127500Y6143500D3*
X5381500D3*
X4937000Y2206500D3*
X5191000D3*
X5445000D3*
X4111500Y6969000D3*
X3857500D3*
D41*
X1571500Y6461000D3*
D42*
Y5445000D3*
D39*
X3540000Y6080000D3*
Y5826000D3*
Y5572000D3*
Y5318000D3*
Y5064000D3*
Y4810000D3*
Y4556000D3*
Y4302000D3*
Y4048000D3*
Y3794000D3*
Y3540000D3*
X2016000Y2778000D3*
Y3032000D3*
X3540000Y2778000D3*
Y2524000D3*
Y2270000D3*
Y2016000D3*
X2016000D3*
Y2270000D3*
Y2524000D3*
X3540000Y3286000D3*
Y3032000D3*
X2016000Y3286000D3*
Y3540000D3*
Y3794000D3*
Y4048000D3*
Y4302000D3*
Y4556000D3*
Y4810000D3*
Y5064000D3*
Y5318000D3*
Y5572000D3*
Y5826000D3*
Y6080000D3*
D40*
X5889500Y3730500D3*
X6143500D3*
X6397500D3*
X6651500D3*
X6905500D3*
X7159500D3*
X7413500D3*
X7667500D3*
X5889500Y5000500D3*
X6143500D3*
X6397500D3*
X6651500D3*
X6905500D3*
X7159500D3*
X7413500D3*
X7667500D3*
M02*
